{"title":"The.Haunting.Of.Bryan.Becket.2009.720.BRRip.x264.Feel-Free","uid":6166711,"size":1936107551,"categoryP":"video","categoryS":"hd___movies","magnet":"?xt=urn:btih:ae3caf70d63ec2422c429d6bdfac67ab23201acc&amp;dn=The.Haunting.Of.Bryan.Becket.2009.720.BRRip.x264.Feel-Free&amp;tr=udp%3A%2F%2Ftracker.openbittorrent.com%3A80&amp;tr=udp%3A%2F%2Fopen.demonii.com%3A1337&amp;tr=udp%3A%2F%2Ftracker.coppersurfer.tk%3A6969&amp;tr=udp%3A%2F%2Fexodus.desync.com%3A6969","seeders":0,"leechers":1,"uploader":".BONE.","files":12,"time":1297416096,"description":"Genre:Horror | Thriller\nLanguage:English\n\nIMDb:http://www.imdb.com/title/tt0493451\n\nSource:BluRay.x264-aAF\n\nFormat : MPEG-4\nFormat profile : Base Media\nCodec ID : isom\nFile size : 1.80 GiB\nDuration : 1h 28mn\nOverall bit rate : 2 895 Kbps\n\nVideo\nFormat settings, CABAC : Yes\nFormat settings, ReFrames : 3 frames\nFormat settings, GOP : N=1\nCodec ID : avc1\nCodec ID/Info : Advanced Video Coding\nDuration : 1h 28mn\nBit rate mode : Variable\nBit rate : 2 463 Kbps\nMaximum bit rate : 31.3 Mbps\nWidth : 1 280 pixels\nHeight : 720 pixels\nDisplay aspect ratio : 16:9\nFrame rate mode : Constant\nFrame rate : 23.976 fps\nColor space : YUV\nChroma subsampling : 4:2:0\nBit depth : 8 bits\nScan type : Progressive\nBits/(Pixel*Frame) : 0.111\nStream size : 1.52 GiB (85%)\nWriting library : x264\n\n\nAudio\nID : 2\nFormat : AAC\nFormat/Info : Advanced Audio Codec\nFormat version : Version 4\nFormat profile : LC\nFormat settings, SBR : No\nCodec ID : 40\nDuration : 1h 28mn\nBit rate mode : Variable\nBit rate : 444 Kbps\nMaximum bit rate : 549 Kbps\nChannel(s) : 6 channels\nChannel positions : Front: L C R, Side: L R, LFE\nSampling rate : 48.0 KHz\nStream size : 282 MiB (15%)\n\n\nPlot:\nA tormented man's reluctant search for greater meaning in his life\n &lt;a href=&quot;\nhttp://rapidhdd.com/images/457625vlcsnap-00001.png&quot; rel=&quot;nofollow&quot; target=&quot;_NEW&quot;&gt;\nhttp://rapidhdd.com/images/457625vlcsnap-00001.png&lt;/a&gt;\n &lt;a href=&quot;\nhttp://www.rapidhdd.com/images/977576vlcsnap-00004.png&quot; rel=&quot;nofollow&quot; target=&quot;_NEW&quot;&gt;\nhttp://www.rapidhdd.com/images/977576vlcsnap-00004.png&lt;/a&gt;\n &lt;a href=&quot;\nhttp://www.rapidhdd.com/images/509810vlcsnap-00006.png&quot; rel=&quot;nofollow&quot; target=&quot;_NEW&quot;&gt;\nhttp://www.rapidhdd.com/images/509810vlcsnap-00006.png&lt;/a&gt;\n &lt;a href=&quot;\nhttp://www.rapidhdd.com/images/100405vlcsnap-00003.png&quot; rel=&quot;nofollow&quot; target=&quot;_NEW&quot;&gt;\nhttp://www.rapidhdd.com/images/100405vlcsnap-00003.png&lt;/a&gt;\n &lt;a href=&quot;\nhttp://www.rapidhdd.com/images/721353vlcsnap-00008.png&quot; rel=&quot;nofollow&quot; target=&quot;_NEW&quot;&gt;\nhttp://www.rapidhdd.com/images/721353vlcsnap-00008.png&lt;/a&gt;\n &lt;a href=&quot;\nhttp://www.rapidhdd.com/images/483131vlcsnap-00007.png&quot; rel=&quot;nofollow&quot; target=&quot;_NEW&quot;&gt;\nhttp://www.rapidhdd.com/images/483131vlcsnap-00007.png&lt;/a&gt;\n\n\n","torrent":{"xt":"urn:btih:ae3caf70d63ec2422c429d6bdfac67ab23201acc","amp;dn":"The.Haunting.Of.Bryan.Becket.2009.720.BRRip.x264.Feel-Free","amp;tr":["udp%3A%2F%2Ftracker.openbittorrent.com%3A80","udp%3A%2F%2Fopen.demonii.com%3A1337","udp%3A%2F%2Ftracker.coppersurfer.tk%3A6969","udp%3A%2F%2Fexodus.desync.com%3A6969"],"infoHash":"ae3caf70d63ec2422c429d6bdfac67ab23201acc","infoHashBuffer":{"type":"Buffer","data":[174,60,175,112,214,62,194,66,44,66,157,107,223,172,103,171,35,32,26,204]},"announce":[],"urlList":[]}}